<?xml version="1.0" encoding="UTF-8" standalone="no"?><!-- Generator: Gravit.io --><svg xmlns="http://www.w3.org/2000/svg" xmlns:xlink="http://www.w3.org/1999/xlink" style="isolation:isolate" viewBox="0 -109.999 560.599 621.999" width="560.599pt" height="621.999pt"><g><g><g><path d=" M 514.868 -100.393 C 510.115 -103.202 503.982 -101.625 501.174 -96.872 L 485.117 -69.701 C 482.308 -64.947 483.885 -58.815 488.639 -56.006 C 491.016 -54.601 493.737 -54.293 496.215 -54.93 C 498.694 -55.567 500.929 -57.151 502.333 -59.527 L 518.389 -86.699 C 521.198 -91.452 519.622 -97.584 514.868 -100.393 Z "/></g></g><g><g><path d=" M 439.82 -109.682 C 434.472 -108.307 431.25 -102.857 432.626 -97.508 L 441.978 -61.136 C 443.353 -55.788 448.803 -52.566 454.152 -53.942 C 459.5 -55.317 462.721 -60.767 461.346 -66.116 L 451.994 -102.488 C 450.617 -107.837 445.168 -111.057 439.82 -109.682 Z "/></g></g><g><g><path d=" M 548.107 -46.159 L 511.735 -36.807 C 506.387 -35.432 503.166 -29.982 504.541 -24.633 C 505.917 -19.285 511.366 -16.064 516.715 -17.439 L 553.087 -26.791 C 558.435 -28.167 561.657 -33.616 560.281 -38.965 C 558.906 -44.314 553.456 -47.535 548.107 -46.159 Z "/></g></g><g><g><path d=" M 478.48 -38.788 C 473.731 -41.603 467.595 -40.033 464.781 -35.285 C 463.412 -32.975 461.235 -31.336 458.65 -30.672 C 456.066 -30.007 453.376 -30.391 451.074 -31.751 C 436.837 -40.164 418.407 -35.426 409.992 -21.186 L 404.906 -12.572 L 387.687 -22.751 C 380.789 -26.827 372.717 -27.974 364.959 -25.979 C 357.2 -23.984 350.682 -19.087 346.607 -12.189 L 333.235 10.44 C 303.606 3.657 456.761 94.162 436.528 71.482 L 449.9 48.853 C 453.976 41.955 455.122 33.884 453.127 26.126 C 451.132 18.367 446.234 11.85 439.338 7.775 L 422.123 -2.399 L 427.209 -11.012 C 430.012 -15.756 436.154 -17.337 440.899 -14.532 C 447.798 -10.456 455.871 -9.308 463.627 -11.302 C 471.376 -13.295 477.894 -18.19 481.982 -25.086 C 484.798 -29.837 483.23 -35.971 478.48 -38.788 Z  M 433.761 31.104 C 434.426 33.689 434.043 36.379 432.684 38.678 L 421.977 56.798 C 402.036 38.698 378.586 24.841 353.115 16.104 L 363.822 -2.014 C 365.18 -4.314 367.352 -5.946 369.938 -6.611 C 372.524 -7.276 375.213 -6.893 377.51 -5.536 L 403.333 9.732 C 403.373 9.755 403.415 9.773 403.454 9.795 L 429.165 24.988 C 431.463 26.346 433.096 28.518 433.761 31.104 Z "/></g></g></g><g><path d=" M 437.02 74.98 C 388.667 26.629 324.38 0 256 0 C 187.62 0 123.333 26.629 74.98 74.98 C 26.629 123.333 0 187.62 0 256 C 0 324.38 26.629 388.667 74.98 437.02 C 123.333 485.371 187.62 512 256 512 C 324.38 512 388.667 485.371 437.02 437.02 C 485.371 388.667 512 324.38 512 256 C 512 187.62 485.371 123.333 437.02 74.98 L 437.02 74.98 Z  M 431.626 421.02 L 411.935 401.329 C 413.447 400.413 415.053 399.515 416.698 398.598 C 422.651 395.279 429.398 391.516 433.93 385.289 C 438.44 379.092 439.943 371.533 441.269 364.863 C 442.209 360.134 443.097 355.669 444.852 352.231 C 446.569 348.868 449.635 345.566 452.88 342.072 C 457.538 337.055 462.818 331.37 465.216 323.985 C 467.567 316.746 466.693 309.447 465.847 302.389 C 465.27 297.573 464.725 293.023 465.333 289.156 C 465.91 285.484 467.788 281.424 469.776 277.127 C 471.707 272.953 473.807 268.403 474.986 263.502 L 496.873 263.502 C 495.079 322.567 472.124 377.984 431.626 421.02 L 431.626 421.02 Z  M 15.127 263.5 L 37.014 263.5 C 38.193 268.402 40.292 272.952 42.224 277.126 C 44.213 281.424 46.091 285.483 46.668 289.155 C 47.275 293.021 46.731 297.57 46.153 302.385 C 45.307 309.443 44.432 316.739 46.782 323.978 C 49.18 331.363 54.46 337.048 59.117 342.064 C 62.362 345.559 65.427 348.86 67.144 352.223 C 68.898 355.661 69.786 360.126 70.726 364.854 C 72.052 371.524 73.554 379.083 78.064 385.28 C 82.596 391.507 89.342 395.27 95.294 398.589 C 96.943 399.508 98.551 400.408 100.066 401.326 L 80.374 421.02 C 39.876 377.984 16.921 322.567 15.127 263.5 L 15.127 263.5 Z  M 80.374 90.98 L 100.065 110.671 C 98.553 111.587 96.947 112.485 95.302 113.402 C 89.349 116.721 82.602 120.484 78.07 126.711 C 73.56 132.908 72.057 140.467 70.731 147.137 C 69.791 151.866 68.903 156.331 67.148 159.769 C 65.431 163.132 62.365 166.434 59.12 169.928 C 54.462 174.945 49.182 180.63 46.784 188.015 C 44.433 195.254 45.307 202.553 46.153 209.611 C 46.73 214.427 47.275 218.977 46.667 222.844 C 46.09 226.516 44.212 230.576 42.224 234.873 C 40.293 239.047 38.193 243.597 37.014 248.498 L 15.127 248.498 C 16.921 189.433 39.876 134.016 80.374 90.98 L 80.374 90.98 Z  M 409.399 126.511 C 414.448 129.326 419.216 131.986 421.807 135.546 C 424.375 139.076 425.437 144.416 426.56 150.07 C 427.658 155.593 428.793 161.305 431.495 166.597 C 434.161 171.818 438.09 176.05 441.89 180.142 C 445.842 184.398 449.575 188.418 450.951 192.655 C 452.281 196.753 451.637 202.134 450.953 207.83 C 450.28 213.447 449.584 219.256 450.514 225.174 C 451.416 230.916 453.829 236.131 456.162 241.174 C 457.326 243.69 458.452 246.137 459.321 248.501 L 274.106 248.501 L 401.083 121.524 C 403.781 123.366 406.614 124.958 409.399 126.511 L 409.399 126.511 Z  M 450.953 304.171 C 451.636 309.869 452.28 315.252 450.949 319.35 C 449.573 323.587 445.84 327.607 441.888 331.864 C 438.088 335.957 434.158 340.189 431.492 345.409 C 428.79 350.701 427.655 356.412 426.556 361.937 C 425.432 367.591 424.37 372.931 421.801 376.461 C 419.21 380.021 414.441 382.68 409.392 385.496 C 406.61 387.047 403.78 388.638 401.084 390.478 L 319.054 308.448 C 324.03 305.365 329.889 303.58 336.16 303.58 C 352.293 303.58 366.16 315.602 368.417 331.544 C 368.998 335.645 372.79 338.499 376.894 337.919 C 380.995 337.338 383.849 333.543 383.269 329.441 C 379.972 306.146 359.719 288.579 336.16 288.579 C 325.743 288.579 316.104 291.953 308.26 297.653 L 274.106 263.5 L 459.32 263.5 C 458.451 265.864 457.326 268.311 456.162 270.827 C 453.829 275.87 451.416 281.085 450.514 286.827 C 449.584 292.744 450.28 298.554 450.953 304.171 L 450.953 304.171 Z  M 102.601 385.489 C 97.552 382.674 92.784 380.014 90.193 376.454 C 87.625 372.924 86.563 367.584 85.44 361.93 C 84.342 356.407 83.207 350.695 80.505 345.403 C 77.839 340.182 73.91 335.95 70.11 331.858 C 66.158 327.602 62.425 323.582 61.049 319.345 C 59.719 315.247 60.363 309.866 61.047 304.17 C 61.72 298.553 62.416 292.744 61.486 286.826 C 60.584 281.084 58.171 275.869 55.838 270.826 C 54.674 268.31 53.548 265.863 52.679 263.499 L 237.893 263.499 L 110.917 390.477 C 108.219 388.634 105.386 387.042 102.601 385.489 Z  M 61.047 207.829 C 60.364 202.131 59.72 196.748 61.051 192.65 C 62.427 188.413 66.16 184.393 70.112 180.136 C 73.912 176.043 77.842 171.811 80.508 166.591 C 83.21 161.299 84.345 155.588 85.444 150.063 C 86.568 144.409 87.63 139.069 90.199 135.539 C 92.79 131.979 97.559 129.32 102.608 126.504 C 105.39 124.953 108.22 123.362 110.916 121.522 L 129.316 139.922 C 123.616 147.767 120.242 157.406 120.242 167.822 C 120.242 190.148 135.422 209.219 157.156 214.201 C 157.72 214.33 158.283 214.392 158.839 214.392 C 162.257 214.392 165.346 212.039 166.143 208.566 C 167.068 204.529 164.545 200.505 160.508 199.58 C 145.632 196.171 135.242 183.111 135.242 167.822 C 135.242 161.551 137.027 155.691 140.11 150.716 L 237.894 248.5 L 52.679 248.5 C 53.548 246.136 54.673 243.689 55.837 241.173 C 58.17 236.13 60.583 230.915 61.485 225.173 C 62.416 219.256 61.72 213.446 61.047 207.829 L 61.047 207.829 Z  M 248.5 237.894 L 206.347 195.741 C 212.208 187.655 215.404 177.884 215.404 167.823 C 215.404 141.587 194.059 120.243 167.823 120.243 C 157.406 120.243 147.767 123.617 139.922 129.316 L 121.523 110.917 C 123.366 108.219 124.958 105.386 126.51 102.602 C 129.325 97.553 131.985 92.784 135.545 90.194 C 139.074 87.625 144.415 86.564 150.068 85.441 C 155.592 84.343 161.304 83.208 166.596 80.506 C 171.817 77.841 176.049 73.911 180.141 70.111 C 184.397 66.159 188.417 62.426 192.654 61.051 C 196.752 59.72 202.133 60.365 207.828 61.048 C 213.445 61.721 219.252 62.417 225.172 61.487 C 230.913 60.585 236.128 58.172 241.171 55.838 C 243.687 54.674 246.134 53.548 248.499 52.679 L 248.499 237.894 L 248.5 237.894 Z  M 195.541 184.934 L 150.717 140.109 C 155.693 137.027 161.552 135.242 167.824 135.242 C 185.789 135.242 200.405 149.857 200.405 167.822 C 200.403 173.901 198.696 179.822 195.541 184.934 L 195.541 184.934 Z  M 175.839 359.693 C 184.964 359.693 192.387 367.117 192.387 376.242 C 192.387 385.367 184.964 392.79 175.839 392.79 C 166.714 392.79 159.291 385.367 159.291 376.242 C 159.291 367.117 166.714 359.693 175.839 359.693 Z  M 144.361 378.246 C 145.399 394.711 159.117 407.79 175.839 407.79 C 193.235 407.79 207.387 393.638 207.387 376.242 C 207.387 359.52 194.308 345.802 177.842 344.763 L 248.499 274.106 L 248.499 459.321 C 246.135 458.452 243.688 457.327 241.172 456.163 C 236.129 453.83 230.914 451.417 225.172 450.514 C 219.255 449.584 213.444 450.28 207.827 450.953 C 202.129 451.636 196.747 452.28 192.648 450.949 C 188.411 449.573 184.391 445.84 180.134 441.888 C 176.041 438.087 171.809 434.158 166.588 431.492 C 161.296 428.79 155.585 427.655 150.061 426.556 C 144.407 425.432 139.066 424.37 135.537 421.801 C 131.977 419.21 129.317 414.441 126.502 409.392 C 124.951 406.611 123.36 403.78 121.52 401.084 L 144.361 378.246 Z  M 263.5 274.106 L 297.654 308.26 C 291.954 316.105 288.58 325.744 288.58 336.16 C 288.58 362.396 309.925 383.741 336.161 383.741 C 346.262 383.741 355.992 380.548 364.075 374.681 L 390.476 401.082 C 388.633 403.78 387.041 406.613 385.489 409.397 C 382.674 414.446 380.014 419.215 376.454 421.805 C 372.925 424.374 367.584 425.435 361.931 426.558 C 356.407 427.656 350.695 428.791 345.403 431.493 C 340.182 434.158 335.95 438.088 331.858 441.888 C 327.602 445.84 323.582 449.573 319.345 450.948 C 315.247 452.279 309.866 451.634 304.171 450.951 C 298.553 450.278 292.747 449.582 286.827 450.512 C 281.086 451.414 275.871 453.827 270.828 456.161 C 268.312 457.325 265.865 458.451 263.5 459.32 L 263.5 274.106 Z  M 353.28 363.887 C 348.173 367.045 342.264 368.742 336.161 368.742 C 318.196 368.742 303.58 354.126 303.58 336.161 C 303.58 329.89 305.365 324.03 308.448 319.055 L 353.28 363.887 Z  M 328.145 160.322 C 319.02 160.322 311.597 152.899 311.597 143.774 C 311.597 134.649 319.02 127.225 328.145 127.225 C 337.27 127.225 344.693 134.649 344.693 143.774 C 344.693 152.899 337.27 160.322 328.145 160.322 Z  M 359.623 141.771 C 358.585 125.306 344.867 112.226 328.145 112.226 C 310.749 112.226 296.597 126.379 296.597 143.775 C 296.597 160.497 309.676 174.215 326.142 175.253 L 263.5 237.894 L 263.5 52.679 C 265.864 53.548 268.311 54.674 270.827 55.838 C 275.87 58.171 281.085 60.585 286.827 61.487 C 292.745 62.417 298.555 61.72 304.172 61.048 C 309.87 60.365 315.252 59.721 319.351 61.052 C 323.588 62.428 327.608 66.161 331.865 70.113 C 335.958 73.914 340.19 77.843 345.411 80.509 C 350.703 83.211 356.414 84.346 361.938 85.445 C 367.592 86.569 372.933 87.631 376.462 90.2 C 379.812 92.638 384.503 91.898 386.94 88.55 C 389.378 85.2 388.639 80.51 385.29 78.072 C 379.093 73.562 371.534 72.059 364.864 70.733 C 360.136 69.793 355.67 68.905 352.232 67.15 C 348.869 65.433 345.567 62.368 342.073 59.122 C 337.056 54.464 331.371 49.184 323.985 46.786 C 316.748 44.436 309.449 45.31 302.389 46.155 C 297.573 46.732 293.023 47.277 289.157 46.669 C 285.484 46.092 281.425 44.213 277.128 42.225 C 272.953 40.293 268.404 38.194 263.502 37.015 L 263.502 15.127 C 322.57 16.921 377.986 39.875 421.021 80.374 L 359.623 141.771 Z  M 248.5 37.014 C 243.598 38.193 239.048 40.292 234.874 42.224 C 230.577 44.212 226.518 46.091 222.845 46.668 C 218.975 47.275 214.43 46.731 209.615 46.153 C 202.557 45.307 195.26 44.433 188.023 46.783 C 180.637 49.18 174.952 54.46 169.936 59.118 C 166.441 62.363 163.14 65.428 159.777 67.145 C 156.34 68.899 151.874 69.787 147.146 70.727 C 140.477 72.053 132.917 73.555 126.721 78.064 C 120.493 82.596 116.731 89.342 113.412 95.294 C 112.493 96.943 111.593 98.552 110.675 100.066 L 90.981 80.374 C 134.017 39.875 189.433 16.921 248.5 15.127 L 248.5 37.014 Z  M 110.672 411.935 C 111.587 413.447 112.486 415.053 113.403 416.698 C 116.722 422.65 120.485 429.397 126.712 433.929 C 132.909 438.439 140.468 439.942 147.138 441.268 C 151.866 442.208 156.332 443.096 159.77 444.851 C 163.133 446.568 166.435 449.633 169.929 452.879 C 174.946 457.537 180.631 462.817 188.017 465.215 C 195.255 467.566 202.554 466.692 209.613 465.846 C 214.429 465.269 218.978 464.724 222.845 465.332 C 226.518 465.909 230.577 467.788 234.874 469.776 C 239.049 471.708 243.598 473.807 248.5 474.986 L 248.5 496.873 C 189.432 495.079 134.016 472.125 90.981 431.626 L 110.672 411.935 Z  M 263.5 474.986 C 268.402 473.807 272.952 471.708 277.126 469.776 C 281.423 467.788 285.482 465.909 289.155 465.332 C 293.025 464.725 297.57 465.269 302.385 465.847 C 309.443 466.693 316.74 467.567 323.977 465.217 C 331.363 462.819 337.048 457.54 342.064 452.882 C 345.559 449.637 348.86 446.572 352.223 444.854 C 355.66 443.1 360.126 442.212 364.854 441.272 C 371.523 439.946 379.083 438.444 385.279 433.935 C 391.507 429.403 395.269 422.657 398.588 416.705 C 399.507 415.056 400.407 413.447 401.325 411.933 L 421.018 431.626 C 377.982 472.125 322.566 495.079 263.499 496.873 L 263.499 474.986 L 263.5 474.986 Z  M 474.986 248.5 C 473.807 243.598 471.708 239.048 469.776 234.874 C 467.787 230.576 465.909 226.517 465.332 222.845 C 464.725 218.979 465.269 214.43 465.847 209.615 C 466.693 202.557 467.568 195.261 465.218 188.022 C 462.82 180.637 457.54 174.952 452.883 169.936 C 449.638 166.441 446.573 163.14 444.856 159.777 C 443.102 156.339 442.214 151.874 441.274 147.146 C 439.948 140.476 438.446 132.917 433.936 126.72 C 429.404 120.493 422.658 116.73 416.706 113.411 C 415.057 112.492 413.449 111.592 411.934 110.674 L 431.627 90.981 C 472.126 134.017 495.08 189.433 496.874 248.501 L 474.986 248.501 L 474.986 248.5 Z "/><path d=" M 118.825 293.709 C 117.514 289.779 113.268 287.655 109.338 288.965 C 105.408 290.275 103.285 294.522 104.594 298.452 L 112.61 322.501 C 113.658 325.644 116.584 327.631 119.724 327.631 C 120.51 327.631 121.31 327.507 122.097 327.244 C 126.027 325.934 128.15 321.687 126.841 317.758 L 118.825 293.709 Z " /><path d=" M 167.823 288.581 L 151.791 288.581 C 147.649 288.581 144.291 291.939 144.291 296.081 C 144.291 300.223 147.649 303.581 151.791 303.581 L 167.823 303.581 C 171.965 303.581 175.323 300.223 175.323 296.081 C 175.323 291.939 171.965 288.581 167.823 288.581 Z " /><path d=" M 226.648 357.497 C 228.112 358.961 230.032 359.693 231.951 359.693 C 233.87 359.693 235.79 358.961 237.254 357.497 C 240.183 354.568 240.183 349.819 237.254 346.891 L 229.238 338.874 C 226.309 335.945 221.56 335.945 218.632 338.874 C 215.703 341.803 215.703 346.552 218.632 349.48 L 226.648 357.497 Z " /><path d=" M 406.999 284.71 C 405.147 281.005 400.642 279.502 396.937 281.356 C 393.232 283.209 391.73 287.713 393.583 291.418 L 401.599 307.45 C 402.913 310.078 405.561 311.598 408.313 311.598 C 409.44 311.598 410.584 311.343 411.661 310.804 C 415.366 308.951 416.868 304.447 415.015 300.742 L 406.999 284.71 Z " /><path d=" M 296.081 415.807 L 304.097 415.807 C 308.239 415.807 311.597 412.449 311.597 408.307 C 311.597 404.164 308.239 400.807 304.097 400.807 L 296.081 400.807 C 291.939 400.807 288.581 404.164 288.581 408.307 C 288.581 412.448 291.938 415.807 296.081 415.807 Z " /><path d=" M 388.92 190.563 C 389.997 191.102 391.141 191.356 392.268 191.356 C 395.019 191.356 397.668 189.836 398.982 187.209 L 406.998 171.177 C 408.851 167.472 407.349 162.967 403.644 161.114 C 399.94 159.261 395.434 160.763 393.582 164.468 L 385.566 180.5 C 383.714 184.206 385.215 188.71 388.92 190.563 L 388.92 190.563 Z " /><path d=" M 346.89 221.223 L 354.906 229.239 C 356.37 230.703 358.29 231.436 360.209 231.436 C 362.128 231.436 364.048 230.704 365.512 229.239 C 368.441 226.31 368.441 221.562 365.512 218.633 L 357.496 210.617 C 354.567 207.688 349.818 207.688 346.89 210.617 C 343.961 213.545 343.961 218.294 346.89 221.223 Z " /><path d=" M 401.599 219.273 C 402.913 221.901 405.561 223.42 408.313 223.42 C 409.44 223.42 410.584 223.165 411.661 222.627 L 427.693 214.61 C 431.398 212.757 432.9 208.253 431.047 204.548 C 429.194 200.843 424.691 199.34 420.985 201.194 L 404.953 209.21 C 401.248 211.063 399.746 215.568 401.599 219.273 L 401.599 219.273 Z " /><path d=" M 293.368 82.358 C 290.439 79.428 285.69 79.428 282.762 82.358 C 279.833 85.287 279.833 90.035 282.762 92.964 L 290.778 100.98 C 292.242 102.445 294.162 103.177 296.081 103.177 C 298 103.177 299.92 102.445 301.384 100.98 C 304.313 98.051 304.313 93.303 301.384 90.374 L 293.368 82.358 Z " /><path d=" M 230.644 92.323 C 228.792 88.618 224.287 87.116 220.582 88.969 L 204.55 96.985 C 200.845 98.838 199.343 103.342 201.196 107.048 C 202.51 109.676 205.158 111.195 207.91 111.195 C 209.037 111.195 210.181 110.94 211.258 110.402 L 227.29 102.386 C 230.995 100.533 232.496 96.028 230.644 92.323 Z " /><path d=" M 95.758 191.354 C 99.9 191.354 103.258 187.997 103.258 183.854 C 103.258 179.712 99.9 176.354 95.758 176.354 L 95.677 176.354 C 91.535 176.354 88.218 179.712 88.218 183.854 C 88.218 187.997 91.616 191.354 95.758 191.354 Z " /><path d=" M 288.064 176.354 L 287.984 176.354 C 283.842 176.354 280.524 179.712 280.524 183.854 C 280.524 187.997 283.922 191.354 288.064 191.354 C 292.206 191.354 295.564 187.997 295.564 183.854 C 295.564 179.713 292.207 176.354 288.064 176.354 L 288.064 176.354 Z " /><path d=" M 232.032 128.258 L 231.952 128.258 C 227.81 128.258 224.492 131.616 224.492 135.758 C 224.492 139.901 227.89 143.258 232.032 143.258 C 236.174 143.258 239.532 139.901 239.532 135.758 C 239.532 131.616 236.174 128.258 232.032 128.258 L 232.032 128.258 Z " /><path d=" M 223.936 431.839 C 228.078 431.839 231.436 428.481 231.436 424.339 C 231.436 420.196 228.078 416.839 223.936 416.839 L 223.856 416.839 C 219.714 416.839 216.396 420.196 216.396 424.339 C 216.396 428.48 219.793 431.839 223.936 431.839 L 223.936 431.839 Z " /><path d=" M 114.422 229.239 C 115.886 230.703 117.806 231.436 119.725 231.436 C 121.644 231.436 123.564 230.704 125.028 229.239 C 127.957 226.31 127.957 221.562 125.028 218.633 L 117.012 210.617 C 114.083 207.688 109.334 207.688 106.406 210.617 C 103.477 213.546 103.477 218.295 106.406 221.223 L 114.422 229.239 Z " /></g></svg>